<svg width="44" height="10" viewBox="0 0 44 10" fill="none" xmlns="http://www.w3.org/2000/svg">
<path d="M7.32001 7.104C7.32001 7.376 7.27601 7.64 7.18801 7.896C7.10001 8.152 6.93201 8.38 6.68401 8.58C6.44401 8.772 6.10001 8.928 5.65201 9.048C5.21201 9.168 4.63601 9.228 3.92401 9.228C3.28401 9.228 2.74801 9.164 2.31601 9.036C1.88401 8.916 1.53201 8.752 1.26001 8.544C0.996011 8.328 0.804011 8.084 0.684011 7.812C0.564011 7.532 0.496011 7.24 0.480011 6.936H1.59601C1.62001 7.24 1.71201 7.48 1.87201 7.656C2.03201 7.824 2.23201 7.952 2.47201 8.04C2.72001 8.12 2.99201 8.172 3.28801 8.196C3.58401 8.212 3.88401 8.22 4.18801 8.22C4.86001 8.22 5.36001 8.128 5.68801 7.944C6.01601 7.752 6.18001 7.504 6.18001 7.2C6.18001 7 6.10801 6.84 5.96401 6.72C5.82001 6.592 5.62801 6.492 5.38801 6.42C5.15601 6.348 4.88401 6.292 4.57201 6.252C4.26801 6.204 3.95201 6.164 3.62401 6.132C3.20801 6.084 2.81601 6.028 2.44801 5.964C2.08001 5.9 1.76001 5.808 1.48801 5.688C1.21601 5.568 1.00001 5.408 0.840011 5.208C0.680011 5.008 0.600011 4.748 0.600011 4.428C0.600011 4.156 0.644011 3.892 0.732011 3.636C0.828011 3.38 1.00001 3.156 1.24801 2.964C1.50401 2.764 1.85201 2.604 2.29201 2.484C2.74001 2.364 3.32001 2.304 4.03201 2.304C4.67201 2.304 5.19201 2.372 5.59201 2.508C6.00001 2.644 6.32001 2.82 6.55201 3.036C6.78401 3.252 6.94401 3.496 7.03201 3.768C7.12801 4.04 7.18401 4.316 7.20001 4.596H6.08401C6.05201 4.308 5.97601 4.08 5.85601 3.912C5.74401 3.736 5.59201 3.604 5.40001 3.516C5.20801 3.428 4.98001 3.372 4.71601 3.348C4.45201 3.316 4.15601 3.3 3.82801 3.3C3.08401 3.3 2.54801 3.396 2.22001 3.588C1.90001 3.78 1.74001 4.028 1.74001 4.332C1.74001 4.5 1.81601 4.636 1.96801 4.74C2.12801 4.836 2.33201 4.916 2.58001 4.98C2.82801 5.036 3.10001 5.08 3.39601 5.112C3.69201 5.144 3.97601 5.176 4.24801 5.208C4.67201 5.256 5.06801 5.316 5.43601 5.388C5.81201 5.46 6.13601 5.564 6.40801 5.7C6.68801 5.836 6.90801 6.016 7.06801 6.24C7.23601 6.464 7.32001 6.752 7.32001 7.104Z" fill="#0D4DFF"/>
<path d="M15.8327 5.808C15.8247 6.392 15.7247 6.904 15.5327 7.344C15.3487 7.776 15.0847 8.136 14.7407 8.424C14.4047 8.712 14.0007 8.928 13.5287 9.072C13.0647 9.216 12.5487 9.288 11.9807 9.288C11.4047 9.288 10.8847 9.216 10.4207 9.072C9.9567 8.936 9.5567 8.724 9.2207 8.436C8.8927 8.148 8.6367 7.784 8.4527 7.344C8.2687 6.904 8.1727 6.388 8.1647 5.796C8.1647 5.204 8.2567 4.688 8.4407 4.248C8.6247 3.8 8.8807 3.432 9.2087 3.144C9.5447 2.848 9.9447 2.628 10.4087 2.484C10.8807 2.332 11.4007 2.256 11.9687 2.256C12.5447 2.256 13.0687 2.328 13.5407 2.472C14.0127 2.616 14.4167 2.836 14.7527 3.132C15.0967 3.42 15.3607 3.788 15.5447 4.236C15.7367 4.684 15.8327 5.208 15.8327 5.808ZM9.3047 5.772C9.3207 6.636 9.5567 7.272 10.0127 7.68C10.4767 8.08 11.1327 8.28 11.9807 8.28C12.8287 8.28 13.4887 8.08 13.9607 7.68C14.4327 7.28 14.6767 6.644 14.6927 5.772C14.6767 4.9 14.4287 4.264 13.9487 3.864C13.4687 3.456 12.8047 3.252 11.9567 3.252C11.1087 3.252 10.4567 3.456 10.0007 3.864C9.5527 4.264 9.3207 4.9 9.3047 5.772Z" fill="#0D4DFF"/>
<path d="M23.563 7.992V9H16.807V7.284L22.363 3.66H16.915V2.652H23.515V4.212L17.743 7.992H23.563Z" fill="#0D4DFF"/>
<path d="M26.3721 0.587997V9H25.2441V0.599997L26.3721 0.587997Z" fill="#0D4DFF"/>
<path d="M33.913 8.244C33.577 8.628 33.161 8.904 32.665 9.072C32.169 9.24 31.609 9.324 30.985 9.324C30.529 9.324 30.113 9.264 29.737 9.144C29.361 9.032 29.037 8.856 28.765 8.616C28.501 8.376 28.297 8.076 28.153 7.716C28.009 7.356 27.937 6.936 27.937 6.456V2.64H29.053V6.084C29.053 6.284 29.061 6.516 29.077 6.78C29.101 7.036 29.173 7.276 29.293 7.5C29.421 7.724 29.617 7.916 29.881 8.076C30.153 8.228 30.537 8.304 31.033 8.304C31.433 8.304 31.801 8.264 32.137 8.184C32.473 8.096 32.761 7.948 33.001 7.74C33.249 7.532 33.441 7.248 33.577 6.888C33.721 6.52 33.797 6.052 33.805 5.484V2.64H34.909V9H33.805L33.913 8.244Z" fill="#0D4DFF"/>
<path d="M37.5899 9L36.4739 9.012V0.599997H37.5899V6.288L41.6819 2.64H43.3019L40.4459 5.16L43.7339 9H42.2579L39.6059 5.904L37.5899 7.692V9Z" fill="#0D4DFF"/>
<path d="M11.47 0V1.38H9.97V0H11.47Z" fill="#0D4DFF"/>
<path d="M30.93 0V1.38H29.43V0H30.93Z" fill="#0D4DFF"/>
<path d="M13.97 0V1.38H12.47V0H13.97Z" fill="#0D4DFF"/>
<path d="M33.43 0V1.38H31.93V0H33.43Z" fill="#0D4DFF"/>
</svg>
